<svg width="27" height="24" viewBox="0 0 27 24" fill="none" xmlns="http://www.w3.org/2000/svg">
<path d="M20.7273 0H5.45455C4.00844 0.00173221 2.62206 0.576962 1.59951 1.59951C0.576962 2.62206 0.00173221 4.00844 0 5.45455L0 18.5455C0.00173221 19.9916 0.576962 21.3779 1.59951 22.4005C2.62206 23.423 4.00844 23.9983 5.45455 24H20.7273C22.1734 23.9983 23.5598 23.423 24.5823 22.4005C25.6049 21.3779 26.1801 19.9916 26.1818 18.5455V5.45455C26.1801 4.00844 25.6049 2.62206 24.5823 1.59951C23.5598 0.576962 22.1734 0.00173221 20.7273 0ZM5.45455 2.18182H20.7273C21.5953 2.18182 22.4277 2.52662 23.0414 3.14038C23.6552 3.75413 24 4.58656 24 5.45455V6.54545H2.18182V5.45455C2.18182 4.58656 2.52662 3.75413 3.14038 3.14038C3.75413 2.52662 4.58656 2.18182 5.45455 2.18182ZM20.7273 21.8182H5.45455C4.58656 21.8182 3.75413 21.4734 3.14038 20.8596C2.52662 20.2459 2.18182 19.4134 2.18182 18.5455V8.72727H24V18.5455C24 19.4134 23.6552 20.2459 23.0414 20.8596C22.4277 21.4734 21.5953 21.8182 20.7273 21.8182ZM20.7273 13.0909C20.7273 13.3802 20.6123 13.6577 20.4078 13.8623C20.2032 14.0669 19.9257 14.1818 19.6364 14.1818H6.54545C6.25613 14.1818 5.97865 14.0669 5.77407 13.8623C5.56948 13.6577 5.45455 13.3802 5.45455 13.0909C5.45455 12.8016 5.56948 12.5241 5.77407 12.3195C5.97865 12.1149 6.25613 12 6.54545 12H19.6364C19.9257 12 20.2032 12.1149 20.4078 12.3195C20.6123 12.5241 20.7273 12.8016 20.7273 13.0909ZM16.3636 17.4545C16.3636 17.7439 16.2487 18.0214 16.0441 18.2259C15.8395 18.4305 15.5621 18.5455 15.2727 18.5455H6.54545C6.25613 18.5455 5.97865 18.4305 5.77407 18.2259C5.56948 18.0214 5.45455 17.7439 5.45455 17.4545C5.45455 17.1652 5.56948 16.8877 5.77407 16.6832C5.97865 16.4786 6.25613 16.3636 6.54545 16.3636H15.2727C15.5621 16.3636 15.8395 16.4786 16.0441 16.6832C16.2487 16.8877 16.3636 17.1652 16.3636 17.4545ZM3.27273 4.36364C3.27273 4.14787 3.33671 3.93696 3.45658 3.75756C3.57645 3.57816 3.74683 3.43834 3.94616 3.35577C4.1455 3.2732 4.36485 3.2516 4.57646 3.29369C4.78808 3.33578 4.98246 3.43968 5.13503 3.59225C5.28759 3.74481 5.39149 3.9392 5.43358 4.15081C5.47568 4.36243 5.45407 4.58177 5.3715 4.78111C5.28894 4.98045 5.14911 5.15082 4.96971 5.27069C4.79031 5.39056 4.5794 5.45455 4.36364 5.45455C4.07431 5.45455 3.79683 5.33961 3.59225 5.13503C3.38766 4.93044 3.27273 4.65296 3.27273 4.36364ZM6.54545 4.36364C6.54545 4.14787 6.60944 3.93696 6.72931 3.75756C6.84918 3.57816 7.01955 3.43834 7.21889 3.35577C7.41823 3.2732 7.63757 3.2516 7.84919 3.29369C8.06081 3.33578 8.25519 3.43968 8.40775 3.59225C8.56032 3.74481 8.66422 3.9392 8.70631 4.15081C8.7484 4.36243 8.7268 4.58177 8.64423 4.78111C8.56166 4.98045 8.42184 5.15082 8.24244 5.27069C8.06304 5.39056 7.85213 5.45455 7.63636 5.45455C7.34704 5.45455 7.06956 5.33961 6.86497 5.13503C6.66039 4.93044 6.54545 4.65296 6.54545 4.36364ZM9.81818 4.36364C9.81818 4.14787 9.88216 3.93696 10.002 3.75756C10.1219 3.57816 10.2923 3.43834 10.4916 3.35577C10.691 3.2732 10.9103 3.2516 11.1219 3.29369C11.3335 3.33578 11.5279 3.43968 11.6805 3.59225C11.833 3.74481 11.9369 3.9392 11.979 4.15081C12.0211 4.36243 11.9995 4.58177 11.917 4.78111C11.8344 4.98045 11.6946 5.15082 11.5152 5.27069C11.3358 5.39056 11.1249 5.45455 10.9091 5.45455C10.6198 5.45455 10.3423 5.33961 10.1377 5.13503C9.93312 4.93044 9.81818 4.65296 9.81818 4.36364Z" fill="white"/>
</svg>
