<svg width="30" height="30" viewBox="0 0 30 30" fill="none" xmlns="http://www.w3.org/2000/svg">
<path fill-rule="evenodd" clip-rule="evenodd" d="M28.8829 0.0333592L28.8917 0.0310211C29.5407 -0.144057 30.1463 0.449966 29.9686 1.10838L29.9665 1.11624C29.965 1.12208 29.9634 1.12793 29.9617 1.13376L29.9599 1.14032L21.1959 29.3811C21.0819 29.7485 20.7422 29.9992 20.3575 29.9999H20.3561C19.9719 29.9999 19.6321 29.7505 19.517 29.3839L16.0979 18.4945L10.5797 20.5513C10.2577 20.6714 9.89449 20.5929 9.65068 20.3491C9.40729 20.1057 9.32824 19.7427 9.44848 19.4201L11.5054 13.9018L0.615997 10.4829C0.248849 10.3676 -0.000643285 10.0272 1.24586e-06 9.64239C0.000645777 9.2576 0.25131 8.91799 0.618751 8.80391L28.8594 0.0398102L28.8658 0.0380524C28.8715 0.0363545 28.8772 0.03486 28.8829 0.0333679L28.8829 0.0333592ZM24.5867 3.20733L3.83063 9.64872L12.4839 12.3657L24.5867 3.20733ZM13.3877 13.8873L11.7686 18.2311L16.1123 16.612L24.5871 5.41262L13.3877 13.8873ZM17.634 17.5157L20.351 26.1691L26.7923 5.41297L17.634 17.5157ZM5.74366 18.0383C6.08714 17.6949 6.64395 17.6949 6.98731 18.0383C7.33073 18.3817 7.33073 18.9385 6.98731 19.2819L1.711 24.5582C1.36753 24.9017 0.81071 24.9017 0.46735 24.5582C0.123932 24.2148 0.123932 23.658 0.46735 23.3146L5.74366 18.0383ZM11.9614 23.0123C11.618 22.6688 11.0612 22.6688 10.7178 23.0123L5.44144 28.2886C5.09802 28.632 5.09802 29.1888 5.44144 29.5323C5.7848 29.8757 6.34168 29.8757 6.6851 29.5323L11.9614 24.256C12.3048 23.9125 12.3048 23.3558 11.9614 23.0123ZM6.47195 22.2841C6.81542 21.9407 7.37224 21.9407 7.7156 22.2841C8.05902 22.6275 8.05902 23.1843 7.7156 23.5278L1.50126 29.7421C1.15784 30.0855 0.600969 30.0855 0.25761 29.7421C-0.0858084 29.3986 -0.0858084 28.8419 0.25761 28.4984L6.47195 22.2841Z" fill="#1A75E8"/>
</svg>
